<svg xmlns="http://www.w3.org/2000/svg" width="15" height="15" viewBox="0 0 15 15"><path fill="#FFF" d="M3.846 2h7.308c1.337 0 1.822.14 2.311.4.49.262.873.646 1.134 1.135.262.489.401.974.401 2.31v3.31c0 1.336-.14 1.821-.4 2.31a2.726 2.726 0 0 1-1.135 1.134c-.489.262-.974.401-2.31.401h-7.31c-1.336 0-1.821-.14-2.31-.4A2.726 2.726 0 0 1 .4 11.464c-.261-.488-.4-.973-.4-2.309v-3.31c0-1.336.14-1.821.4-2.31A2.726 2.726 0 0 1 1.536 2.4c.488-.261.973-.4 2.309-.4zm6.05 5.962a.5.5 0 0 0 0-.881l-3.44-1.842a.5.5 0 0 0-.736.441v3.683a.5.5 0 0 0 .736.44l3.44-1.84z" fill-rule="evenodd"/></svg>